<?xml version="1.0" encoding="UTF-8" standalone="no"?>
<!DOCTYPE svg PUBLIC "-//W3C//DTD SVG 1.1//EN" "http://www.w3.org/Graphics/SVG/1.1/DTD/svg11.dtd">
<svg width="100%" height="100%" viewBox="0 0 512 512" version="1.1" xmlns="http://www.w3.org/2000/svg" xmlns:xlink="http://www.w3.org/1999/xlink" xml:space="preserve" xmlns:serif="http://www.serif.com/" style="fill-rule:evenodd;clip-rule:evenodd;stroke-linecap:round;stroke-linejoin:round;stroke-miterlimit:1.5;">
    <g transform="matrix(1.49627,0,0,1.49627,-368.686,-312.11)">
        <g id="setting-icon">
            <path d="M444.19,220.41C426.517,217.448 408.474,217.448 390.801,220.41L382.165,247.038C365.447,251.49 349.721,259.064 335.816,269.358L309.614,259.508C296.279,271.479 285.03,285.585 276.326,301.249L291.76,324.602C284.818,340.45 280.934,357.467 280.313,374.757L256.275,389.101C257.32,406.99 261.335,424.58 268.155,441.151L296.036,443.645C304.098,458.953 314.98,472.6 328.111,483.866L324.338,511.603C338.976,521.94 355.232,529.768 372.44,534.767L391.773,514.524C408.768,517.766 426.223,517.766 443.217,514.524L462.551,534.767C479.759,529.768 496.015,521.94 510.652,511.603L506.88,483.866C520.011,472.6 530.893,458.953 538.955,443.645L566.836,441.151C573.656,424.58 577.671,406.99 578.716,389.101L554.678,374.757C554.057,357.467 550.173,340.45 543.231,324.602L558.664,301.249C549.961,285.585 538.712,271.479 525.377,259.508L499.175,269.358C485.27,259.064 469.544,251.49 452.825,247.038L444.19,220.41ZM417.495,324.776C447.8,324.776 472.404,349.379 472.404,379.684C472.404,409.989 447.8,434.593 417.495,434.593C387.191,434.593 362.587,409.989 362.587,379.684C362.587,349.379 387.191,324.776 417.495,324.776Z" style="fill:white;stroke:rgb(226,132,132);stroke-opacity:0;stroke-width:33.42px;"/>
        </g>
    </g>
</svg>
